<svg width="24" height="24" viewBox="0 0 24 24" fill="none" xmlns="http://www.w3.org/2000/svg">
    <path d="M8.1 13.8c.546 0 1.04-.215 1.414-.558l3.756 2.146a2.087 2.087 0 0 0-.07.512c0 1.158.942 2.1 2.1 2.1 1.158 0 2.1-.942 2.1-2.1 0-1.158-.942-2.1-2.1-2.1-.546 0-1.04.215-1.414.558l-3.756-2.146c.038-.148.062-.301.065-.461l3.69-2.109a2.09 2.09 0 0 0 1.415.558c1.158 0 2.1-.942 2.1-2.1 0-1.158-.942-2.1-2.1-2.1-1.158 0-2.1.942-2.1 2.1 0 .178.029.347.07.512l-3.41 1.95A2.098 2.098 0 0 0 8.1 9.6c-1.158 0-2.1.942-2.1 2.1 0 1.158.942 2.1 2.1 2.1zm7.2 1.2a.901.901 0 0 1 0 1.8.901.901 0 0 1 0-1.8zm0-7.8a.901.901 0 0 1 0 1.8.901.901 0 0 1 0-1.8zm-7.2 3.6a.901.901 0 0 1 0 1.8.901.901 0 0 1 0-1.8z" fill="#1D1C1F"/>
</svg>
